<svg width="121" height="27" viewBox="0 0 121 27" fill="none" xmlns="http://www.w3.org/2000/svg">
<g clip-path="url(#clip0_1682_23083)">
<path d="M110.551 15.2821L105.674 1.16312H109.693L112.078 8.85854L112.477 11.1917L112.751 8.85854L115.089 1.16312H119.129L114.218 15.2821V25.4524H110.551V15.2821ZM68.0873 19.2738C68.1504 20.8139 67.6874 22.3295 66.7748 23.5705C66.1512 24.4018 65.2729 25.0055 64.2742 25.2892C63.6176 25.4772 62.9368 25.567 62.254 25.5556C60.9882 25.6047 59.7421 25.2314 58.7111 24.4943C57.9004 23.8805 57.2608 23.0682 56.8538 22.1354C56.3774 21.0491 56.1069 19.8834 56.056 18.698L59.5217 18.4488C59.6761 19.8581 60.045 20.8764 60.6369 21.5124C60.8182 21.7333 61.048 21.9091 61.3085 22.0262C61.5689 22.1432 61.8529 22.1982 62.1381 22.1869C62.5306 22.1744 62.9129 22.0592 63.247 21.8526C63.5812 21.6461 63.8554 21.3554 64.0426 21.0096C64.3169 20.5221 64.445 19.9656 64.4114 19.407C64.4114 18.4058 63.9525 17.409 63.0432 16.3993L59.8048 13.383C58.7976 12.4651 57.9305 11.4039 57.2313 10.2335C56.6927 9.18389 56.416 8.01919 56.4249 6.83908C56.4249 4.63487 57.1626 2.97204 58.6381 1.83771C59.6279 1.13001 60.8244 0.771801 62.0395 0.819384C63.2078 0.784344 64.3621 1.08235 65.3679 1.67873C66.1016 2.14771 66.7016 2.79904 67.1094 3.56928C67.5689 4.43527 67.8422 5.38815 67.9115 6.36644L64.4243 6.99806C64.373 6.15946 64.0745 5.35496 63.5665 4.68643C63.3864 4.48373 63.1627 4.32466 62.9123 4.2212C62.6619 4.11774 62.3913 4.0726 62.121 4.08918C61.8101 4.07956 61.5027 4.15789 61.2341 4.3152C60.9656 4.47251 60.7467 4.70243 60.6026 4.9786C60.3013 5.5201 60.1531 6.13358 60.1737 6.75315C60.1737 7.8574 60.6498 8.97884 61.5977 10.1261C62.0922 10.6898 62.6395 11.2049 63.2319 11.6643C64.0897 12.3732 64.6345 12.8717 64.9047 13.151C65.7155 13.9388 66.4153 14.8336 66.985 15.8106C67.1943 16.1782 67.3805 16.5585 67.5426 16.9493C67.8633 17.6846 68.0479 18.4723 68.0873 19.2738ZM72.4923 4.78955H68.632V1.12875H79.9856V4.78955H76.1253V25.2849H72.4881L72.4923 4.78955ZM86.7154 0.819384C87.4786 0.810077 88.2355 0.957815 88.9394 1.25345C89.6433 1.54908 90.279 1.98631 90.8074 2.53807C91.3499 3.07003 91.7787 3.70699 92.0677 4.41019C92.3568 5.11339 92.5 5.86814 92.4887 6.62854V19.7937C92.4887 21.3252 91.8814 22.7941 90.8003 23.8771C89.7192 24.96 88.2529 25.5685 86.724 25.5685C85.1951 25.5685 83.7288 24.96 82.6477 23.8771C81.5666 22.7941 80.9593 21.3252 80.9593 19.7937V6.60706C80.95 5.84256 81.0975 5.08429 81.3926 4.37921C81.6877 3.67413 82.1242 3.03724 82.675 2.50799C83.199 1.96681 83.8274 1.53804 84.522 1.24775C85.2166 0.957463 85.9628 0.81172 86.7154 0.819384ZM88.6971 6.50823C88.6988 6.23466 88.6462 5.96346 88.5425 5.71038C88.4388 5.4573 88.2859 5.22736 88.0928 5.03391C87.8997 4.84046 87.6702 4.68734 87.4175 4.58344C87.1649 4.47953 86.8942 4.42691 86.6211 4.42862C86.3457 4.42412 86.0723 4.47546 85.8172 4.57958C85.5622 4.6837 85.3308 4.83843 85.137 5.03446C84.9383 5.2243 84.7809 5.45318 84.6746 5.70678C84.5684 5.96038 84.5155 6.23322 84.5193 6.50823V19.755C84.5145 20.0302 84.5668 20.3033 84.6732 20.5571C84.7795 20.8108 84.9375 21.0396 85.137 21.2288C85.3306 21.4254 85.5618 21.5808 85.8168 21.6856C86.0719 21.7905 86.3454 21.8426 86.6211 21.8389C86.8942 21.8395 87.1648 21.7859 87.4172 21.6814C87.6696 21.5768 87.8988 21.4232 88.0918 21.2296C88.2847 21.0359 88.4375 20.8059 88.5414 20.5528C88.6453 20.2998 88.6982 20.0286 88.6971 19.755V6.50823ZM99.5359 1.12875C101.566 1.12875 103.056 1.68875 104.005 2.80876C104.837 3.78555 105.253 5.14761 105.253 6.89494V10.4011C105.264 11.2225 105.096 12.0363 104.76 12.7859C104.425 13.5354 103.93 14.2025 103.31 14.7407L106.004 25.2892H102.071L99.8662 16.1887H97.4385V25.2892H93.8227V1.12875H99.5359ZM101.715 6.93791C101.715 5.53718 101.021 4.83681 99.6346 4.83681H97.4385V12.5709H99.6346C99.9097 12.5779 100.183 12.5276 100.438 12.4234C100.693 12.3191 100.923 12.163 101.114 11.9651C101.309 11.7708 101.462 11.5397 101.566 11.2851C101.67 11.0305 101.722 10.7577 101.719 10.4827L101.715 6.93791ZM5.27585 14.9212L0.381836 0.802197H4.40513L6.78994 8.49761L7.18026 10.8307L7.45477 8.49761L9.80098 0.802197H13.8414L8.93027 14.9212V25.0872H5.27585V14.9212ZM19.9793 0.492834C20.7454 0.481161 21.5056 0.627749 22.2126 0.923452C22.9195 1.21916 23.5581 1.65763 24.0884 2.21152C24.6346 2.74404 25.0666 3.38262 25.3579 4.08818C25.6493 4.79374 25.7938 5.55143 25.7826 6.31488V19.566C25.7832 20.3295 25.6335 21.0858 25.342 21.7913C25.0506 22.4969 24.6231 23.138 24.0842 23.6779C23.5451 24.2179 22.9052 24.6461 22.2008 24.938C21.4965 25.23 20.7416 25.38 19.9793 25.3794C19.2152 25.3908 18.457 25.2441 17.7521 24.9484C17.0473 24.6526 16.411 24.2142 15.8831 23.6607C15.3387 23.1264 14.9085 22.4866 14.6188 21.7805C14.329 21.0743 14.1856 20.3165 14.1974 19.5531V6.31918C14.1864 5.55252 14.333 4.79179 14.6282 4.08437C14.9233 3.37694 15.3607 2.73796 15.9131 2.20722C16.4388 1.65942 17.0706 1.22484 17.7698 0.930057C18.4689 0.635276 19.2208 0.486501 19.9793 0.492834ZM21.9695 6.22465C21.9712 5.94995 21.9185 5.67764 21.8143 5.42351C21.7102 5.16938 21.5567 4.9385 21.3628 4.74425C21.1689 4.55 20.9384 4.39625 20.6847 4.29192C20.431 4.18758 20.1592 4.13474 19.885 4.13645C19.6089 4.1316 19.3347 4.18278 19.0789 4.2869C18.8231 4.39102 18.591 4.54593 18.3966 4.74228C18.1961 4.93273 18.0373 5.16285 17.9302 5.41803C17.8231 5.67321 17.7702 5.94789 17.7747 6.22465V19.5273C17.7701 19.8047 17.823 20.08 17.93 20.3359C18.0371 20.5918 18.196 20.8227 18.3966 21.0139C18.591 21.2103 18.8231 21.3652 19.0789 21.4693C19.3347 21.5734 19.6089 21.6246 19.885 21.6198C20.1595 21.6215 20.4317 21.5685 20.6857 21.4639C20.9397 21.3593 21.1703 21.2052 21.3643 21.0105C21.5583 20.8158 21.7117 20.5844 21.8156 20.3297C21.9195 20.0751 21.9718 19.8023 21.9695 19.5273V6.22465ZM34.3268 25.3579C33.568 25.3625 32.8159 25.2165 32.1138 24.9283C31.4116 24.6402 30.7734 24.2157 30.2359 23.6792C29.6984 23.1428 29.2722 22.505 28.982 21.8027C28.6917 21.1004 28.5432 20.3475 28.5449 19.5874V0.819384H32.1221V19.5488C32.1171 19.8256 32.1698 20.1004 32.2769 20.3557C32.384 20.611 32.5431 20.841 32.7441 21.0311C32.9386 21.2277 33.1706 21.383 33.4263 21.4878C33.682 21.5926 33.9562 21.6448 34.2324 21.6413C34.507 21.643 34.7792 21.59 35.0332 21.4854C35.2871 21.3808 35.5178 21.2267 35.7118 21.0319C35.9058 20.8372 36.0591 20.6059 36.163 20.3512C36.2669 20.0966 36.3193 19.8238 36.317 19.5488V0.819384H40.1258V19.5874C40.1399 20.3539 39.9947 21.1149 39.6993 21.822C39.4039 22.5292 38.9649 23.1671 38.4101 23.6951C37.8751 24.2317 37.238 24.6553 36.5366 24.9409C35.8353 25.2265 35.0838 25.3683 34.3268 25.3579ZM48.5842 0.819384C50.623 0.819384 52.1185 1.38225 53.0707 2.50799C53.9057 3.48764 54.3246 4.85543 54.3275 6.61136V10.1347C54.3383 10.9598 54.1688 11.7774 53.831 12.53C53.4931 13.2826 52.995 13.9521 52.3716 14.4915L55.0781 25.0872H51.1277L48.9145 15.961H46.4782V25.0872H42.8237V0.819384H48.5842ZM50.7674 6.67151C50.7674 5.26219 50.0711 4.55753 48.6785 4.55753H46.4782V12.326H48.6785C48.9556 12.3311 49.2306 12.2783 49.4861 12.1711C49.7416 12.0638 49.972 11.9044 50.1626 11.703C50.3583 11.5088 50.5128 11.277 50.6167 11.0216C50.7206 10.7661 50.7719 10.4922 50.7674 10.2163V6.67151Z" fill="#FF4D4D"/>
</g>
<defs>
<clipPath id="clip0_1682_23083">
<rect width="120.098" height="25.7803" fill="white" transform="translate(0.317383 0.492676)"/>
</clipPath>
</defs>
</svg>
