<svg width="187" height="41" viewBox="0 0 187 41" fill="none" xmlns="http://www.w3.org/2000/svg">
<path d="M20.4385 29.4707C25.4263 29.4707 29.4697 25.4273 29.4697 20.4395C29.4697 15.4516 25.4263 11.4082 20.4385 11.4082C15.4507 11.4082 11.4072 15.4516 11.4072 20.4395C11.4072 25.4273 15.4507 29.4707 20.4385 29.4707Z" fill="url(#paint0_radial_1469_22044)"/>
<path d="M39.4634 21.8558C38.6828 21.8558 38.0445 21.2121 38.0445 20.4144C38.0445 11.8032 32.0016 4.43285 23.6766 2.89348C23.2404 2.81417 22.795 2.93079 22.4552 3.22001C22.12 3.50456 21.9363 3.90573 21.9363 4.35355C21.9363 5.07193 22.4322 5.68302 23.1164 5.80897C28.6358 6.81656 33.1542 11.0195 34.6236 16.524C34.9634 17.8021 34.7062 19.1409 33.9118 20.1952C33.1129 21.2541 31.9052 21.8605 30.5965 21.8605C28.7139 21.8605 27.0654 20.587 26.5833 18.7631C25.8486 15.9829 23.3552 14.047 20.522 14.047C17.0598 14.047 14.245 16.9065 14.245 20.4237C14.245 21.2214 13.6113 21.8652 12.8261 21.8652C12.0455 21.8652 11.4072 21.2214 11.4072 20.4237C11.4072 15.3205 15.494 11.1688 20.5174 11.1688C24.6317 11.1688 28.2547 13.9863 29.32 18.0214C29.4715 18.5905 29.995 18.987 30.5965 18.987C31.0144 18.987 31.4047 18.7911 31.6618 18.4505C31.9144 18.1147 31.997 17.6902 31.8914 17.2843C30.7067 12.8528 27.07 9.46149 22.6205 8.64982C20.5817 8.27664 19.1031 6.47603 19.1031 4.36288C19.1031 3.06607 19.6634 1.84856 20.6414 1.01823C21.6287 0.183235 22.919 -0.16196 24.1863 0.0712798C33.8567 1.85323 40.8777 10.4131 40.8777 20.4191C40.8777 21.2121 40.244 21.8558 39.4634 21.8558Z" fill="url(#paint1_radial_1469_22044)"/>
<path d="M20.4601 40.8774C9.17591 40.8727 0 31.564 0 20.1212C0 18.909 0.101493 17.6969 0.30448 16.5175C1.44397 9.92796 5.68824 4.26974 11.6579 1.37744C12.8204 0.81583 14.1629 0.80647 15.3393 1.35404C16.525 1.91097 17.4015 2.96399 17.7383 4.24165C18.2688 6.24941 17.2908 8.36013 15.4085 9.25871C11.9301 10.9248 9.46194 14.2056 8.80223 18.0339C8.65922 18.8669 8.60386 19.714 8.63154 20.5471C8.84375 26.8184 13.8538 31.8963 20.0311 32.1163C20.8615 32.1443 21.6965 32.0882 22.5131 31.9431C22.8406 31.8869 23.1774 31.8121 23.5188 31.7185C27.2187 30.7169 30.2219 27.9416 31.5552 24.3005C32.2841 22.3068 34.3001 21.1274 36.353 21.4971C37.6171 21.7218 38.7105 22.4987 39.3517 23.6313C39.9883 24.7545 40.1037 26.0883 39.6654 27.3004C37.3634 33.6279 32.1641 38.4391 25.7562 40.1707C25.2072 40.3251 24.6167 40.4562 24.017 40.5638C22.8544 40.7744 21.655 40.8774 20.4601 40.8774ZM13.5171 3.83917C13.3279 3.83917 13.1111 3.87661 12.885 3.98893C7.74578 6.47406 4.09202 11.346 3.114 17.0136C2.93869 18.0292 2.85104 19.0729 2.85104 20.1212C2.85104 29.9681 10.7491 37.9851 20.4601 37.9898C21.4935 37.9898 22.5269 37.9008 23.5234 37.723C24.0355 37.6294 24.5383 37.5171 25.0135 37.386C30.5402 35.8884 35.0152 31.7465 36.9943 26.3036C37.1927 25.7513 37.0128 25.2974 36.8882 25.0774C36.6668 24.689 36.2977 24.4222 35.864 24.3473C35.1674 24.221 34.48 24.6281 34.2309 25.3114C32.5747 29.8324 28.8518 33.2722 24.2661 34.5125C23.8417 34.6295 23.4173 34.7231 23.0067 34.7933C21.9964 34.9711 20.963 35.046 19.9388 35.0086C12.2715 34.7371 6.0573 28.433 5.79434 20.6547C5.75744 19.6204 5.82664 18.5721 6.00656 17.5425C6.8185 12.7828 9.88637 8.71114 14.1998 6.64722C14.8319 6.34301 15.164 5.65036 14.9933 4.99047C14.8734 4.54118 14.5689 4.17613 14.1537 3.97957C14.0107 3.91405 13.7846 3.83917 13.5171 3.83917Z" fill="#27B0D9"/>
<path d="M88.2233 29.795V22.2787C88.2233 20.4678 87.3044 19.2739 85.5404 19.2739C83.7765 19.2739 82.8945 20.4678 82.8945 22.2787V29.795C82.8945 31.3645 81.8371 32.3213 80.4241 32.3213C78.9787 32.3213 77.9536 31.3645 77.9536 29.795V17.9057C77.9536 16.3363 78.9787 15.3794 80.4241 15.3794C81.5877 15.3794 82.5066 16.0277 82.7883 17.1232H82.8252C83.6703 16.0635 85.1525 15.2095 87.3413 15.2095C91.1185 15.2095 93.1642 17.7716 93.1642 21.3576V29.795C93.1642 31.3645 92.139 32.3213 90.6937 32.3213C89.2807 32.3258 88.2233 31.3689 88.2233 29.795Z" fill="url(#paint2_radial_1469_22044)"/>
<path d="M97.5415 27.6593C97.1835 26.6454 96.9668 25.4589 96.9668 23.7676C96.9668 22.0409 97.1458 20.8588 97.5085 19.8449C98.5542 16.8697 101.324 15.2095 105.031 15.2095C108.884 15.2095 111.545 16.9007 112.553 19.8095C112.949 20.9606 113.128 22.1118 113.128 23.6304C113.128 24.5424 112.516 25.1888 111.475 25.1888H102.224C102.078 25.1888 102.007 25.2552 102.007 25.3924C102.007 25.7289 102.078 26.0344 102.186 26.3399C102.652 27.7257 103.985 28.4695 105.785 28.4695C106.972 28.4695 108.126 28.0976 109.058 27.6238C109.671 27.2874 110.283 27.1147 110.787 27.1147C111.833 27.1147 112.624 27.8585 112.624 28.8724C112.624 29.5852 112.266 30.1563 111.616 30.5636C109.958 31.6483 108.017 32.3213 105.318 32.3213C101.286 32.3302 98.5495 30.6035 97.5415 27.6593ZM107.947 22.0453C108.093 22.0453 108.163 21.9789 108.163 21.8417C108.163 21.3015 108.093 20.9606 107.984 20.6242C107.589 19.473 106.51 18.8311 105.069 18.8311C103.627 18.8311 102.586 19.473 102.191 20.6242C102.082 20.9606 102.012 21.3015 102.012 21.8417C102.012 21.9789 102.082 22.0453 102.228 22.0453H107.947Z" fill="url(#paint3_radial_1469_22044)"/>
<path d="M154.005 29.9539C154.005 31.2062 152.919 32.1532 151.552 32.1532C150.713 32.1532 150.011 31.8478 149.552 31.2416L149.13 30.6663H149.094C148.218 31.7151 146.397 32.3213 144.292 32.3213C139.949 32.3213 137.844 30.4274 137.844 27.3165C137.844 23.6968 140.646 22.0418 144.852 22.0418H147.901C148.044 22.0418 148.112 21.9755 148.112 21.8383V21.6701C148.112 20.1479 146.989 19.2363 144.645 19.2363C143.595 19.2363 142.545 19.4753 141.912 19.7098C141.49 19.847 141.105 19.9443 140.756 19.9443C139.601 19.9443 138.794 19.2009 138.794 18.0504C138.794 17.3379 139.142 16.5945 140.055 16.1564C141.178 15.6166 142.893 15.2095 145.242 15.2095C150.36 15.2095 152.808 17.7097 152.808 21.8029V26.2634C152.808 27.0422 152.877 27.4139 153.125 27.821L153.579 28.5644C153.863 29.0069 154.005 29.4804 154.005 29.9539ZM148.117 26.5068V25.3916C148.117 25.2589 148.048 25.1881 147.906 25.1881H145.521C143.453 25.1881 142.508 25.7987 142.508 27.0466C142.508 28.1971 143.347 28.7724 144.962 28.7724C147.03 28.7724 148.117 28.0246 148.117 26.5068Z" fill="url(#paint4_radial_1469_22044)"/>
<path d="M156.857 29.7905V17.9012C156.857 16.3318 157.886 15.3749 159.336 15.3749C160.503 15.3749 161.457 16.0233 161.744 17.2216V17.2574H161.781C162.56 16.1619 164.153 15.2095 166.099 15.2095C166.877 15.2095 167.442 15.3481 167.905 15.5493C168.79 15.9607 169.216 16.6761 169.216 17.4988C169.216 18.8983 168.225 19.9223 166.775 19.9223C166.423 19.9223 166.066 19.8552 165.714 19.7524C165.362 19.6495 164.829 19.5825 164.44 19.5825C162.601 19.5825 161.823 20.8478 161.823 23.0656V29.795C161.823 31.3645 160.762 32.3213 159.345 32.3213C157.886 32.3213 156.857 31.3645 156.857 29.7905Z" fill="url(#paint5_radial_1469_22044)"/>
<path d="M171.657 27.6593C171.32 26.6454 171.116 25.4589 171.116 23.7676C171.116 22.0409 171.285 20.8588 171.626 19.8449C172.61 16.8697 175.217 15.2095 178.706 15.2095C182.332 15.2095 184.837 16.9007 185.786 19.8095C186.158 20.9606 186.327 22.1118 186.327 23.6304C186.327 24.5424 185.75 25.1888 184.771 25.1888H176.064C175.926 25.1888 175.86 25.2552 175.86 25.3924C175.86 25.7289 175.926 26.0344 176.028 26.3399C176.467 27.7257 177.722 28.4695 179.415 28.4695C180.532 28.4695 181.619 28.0976 182.496 27.6238C183.073 27.2874 183.649 27.1147 184.123 27.1147C185.108 27.1147 185.852 27.8585 185.852 28.8724C185.852 29.5852 185.515 30.1563 184.904 30.5636C183.343 31.6483 181.517 32.3213 178.976 32.3213C175.182 32.3302 172.606 30.6035 171.657 27.6593ZM181.446 22.0453C181.583 22.0453 181.65 21.9789 181.65 21.8417C181.65 21.3015 181.583 20.9606 181.481 20.6242C181.109 19.473 180.094 18.8311 178.737 18.8311C177.38 18.8311 176.401 19.473 176.028 20.6242C175.926 20.9606 175.86 21.3015 175.86 21.8417C175.86 21.9789 175.926 22.0453 176.064 22.0453H181.446Z" fill="url(#paint6_radial_1469_22044)"/>
<path d="M75.1009 19.9631C75.1009 26.7887 69.568 32.3216 62.7424 32.3216C55.9167 32.3216 50.3838 26.7887 50.3838 19.9631C50.3838 13.1374 55.9167 7.60449 62.7424 7.60449C69.568 7.60449 75.1009 13.1374 75.1009 19.9631ZM62.7424 12.9816C58.8872 12.9816 55.7609 16.1079 55.7609 19.9631C55.7609 23.8182 58.8872 26.9445 62.7424 26.9445C66.5975 26.9445 69.7238 23.8182 69.7238 19.9631C69.7238 16.1079 66.5975 12.9816 62.7424 12.9816Z" fill="url(#paint7_radial_1469_22044)"/>
<path d="M127.998 26.9426C125.908 26.9426 124.041 25.9704 122.793 24.4525C121.808 23.2373 121.202 21.6644 121.202 19.9631C121.202 18.2572 121.808 16.6888 122.793 15.4736C124.041 13.9466 125.908 12.9698 127.998 12.9698C129.393 12.9698 130.685 13.4009 131.759 14.1483C132.761 14.8454 134.112 14.6895 135.039 13.8915C136.255 12.8414 136.259 10.8466 134.967 9.89736C133.002 8.45285 130.596 7.60449 128.002 7.60449C124.308 7.60449 120.997 9.32414 118.805 12.0251C117.045 14.1621 115.98 16.9456 115.98 19.9631C115.98 22.9805 117.045 25.764 118.805 27.901C120.997 30.6066 124.313 32.3216 128.002 32.3216C130.596 32.3216 132.998 31.4733 134.963 30.0333C136.259 29.0795 136.255 27.0801 135.034 26.0254C134.112 25.2275 132.766 25.0716 131.763 25.764C130.685 26.5115 129.393 26.9426 127.998 26.9426Z" fill="url(#paint8_radial_1469_22044)"/>
<defs>
<radialGradient id="paint0_radial_1469_22044" cx="0" cy="0" r="1" gradientUnits="userSpaceOnUse" gradientTransform="translate(20.386 20.2283) scale(105.424)">
<stop stop-color="#F8A820"/>
<stop offset="1" stop-color="#F1647B"/>
</radialGradient>
<radialGradient id="paint1_radial_1469_22044" cx="0" cy="0" r="1" gradientUnits="userSpaceOnUse" gradientTransform="translate(20.4599 20.2024) scale(106.507 108.199)">
<stop stop-color="#F8A820"/>
<stop offset="1" stop-color="#F1647B"/>
</radialGradient>
<radialGradient id="paint2_radial_1469_22044" cx="0" cy="0" r="1" gradientUnits="userSpaceOnUse" gradientTransform="translate(5.84613 29.8405) scale(179.136 173.461)">
<stop stop-color="#F8A820"/>
<stop offset="1" stop-color="#F1647B"/>
</radialGradient>
<radialGradient id="paint3_radial_1469_22044" cx="0" cy="0" r="1" gradientUnits="userSpaceOnUse" gradientTransform="translate(4.37258 29.7011) scale(182.732 171.755)">
<stop stop-color="#F8A820"/>
<stop offset="1" stop-color="#F1647B"/>
</radialGradient>
<radialGradient id="paint4_radial_1469_22044" cx="0" cy="0" r="1" gradientUnits="userSpaceOnUse" gradientTransform="translate(6.96043 29.6936) scale(177.91 171.667)">
<stop stop-color="#F8A820"/>
<stop offset="1" stop-color="#F1647B"/>
</radialGradient>
<radialGradient id="paint5_radial_1469_22044" cx="0" cy="0" r="1" gradientUnits="userSpaceOnUse" gradientTransform="translate(5.22126 29.8361) scale(179.699 173.461)">
<stop stop-color="#F8A820"/>
<stop offset="1" stop-color="#F1647B"/>
</radialGradient>
<radialGradient id="paint6_radial_1469_22044" cx="0" cy="0" r="1" gradientUnits="userSpaceOnUse" gradientTransform="translate(12.9123 29.7011) scale(171.984 171.755)">
<stop stop-color="#F8A820"/>
<stop offset="1" stop-color="#F1647B"/>
</radialGradient>
<radialGradient id="paint7_radial_1469_22044" cx="0" cy="0" r="1" gradientUnits="userSpaceOnUse" gradientTransform="translate(6.85092 29.5996) scale(177.832)">
<stop stop-color="#F8A820"/>
<stop offset="1" stop-color="#F1647B"/>
</radialGradient>
<radialGradient id="paint8_radial_1469_22044" cx="0" cy="0" r="1" gradientUnits="userSpaceOnUse" gradientTransform="translate(10.3866 29.6031) scale(172.867 177.898)">
<stop stop-color="#F8A820"/>
<stop offset="1" stop-color="#F1647B"/>
</radialGradient>
</defs>
</svg>
