<svg width="44" height="25" viewBox="0 0 44 25" fill="none" xmlns="http://www.w3.org/2000/svg">
<path d="M31.2958 7.18981C30.4607 2.29987 25.7297 -0.907746 21.0251 0.229672C19.9363 0.4938 19.0341 1.12914 17.9285 1.77161C18.2013 0.362926 17.3662 0.467625 16.5478 0.4938C15.6743 0.519975 14.7961 0.531873 13.9227 0.486662C13.3125 0.455728 13.0923 0.627054 13.0947 1.26953C13.1138 8.59136 13.1162 15.9132 13.0923 23.235C13.0899 23.9132 13.3627 24.0084 13.9298 23.9917C15.0043 23.9608 16.0812 23.9417 17.1532 23.9965C17.8639 24.0345 18.1319 23.8513 18.1032 23.0899C18.0434 21.4694 18.0865 19.8442 18.0865 18.2213V16.4605C18.5483 16.815 18.7948 17.003 19.0365 17.1934C20.6709 18.476 22.7983 18.8305 24.5045 18.3308C30.7502 16.5081 32.0281 11.473 31.2958 7.18981ZM26.5003 9.49796C26.3351 11.9417 24.3442 13.6907 21.956 13.5241C19.5558 13.3576 17.7658 11.3088 17.9525 8.94353C18.1176 6.80671 19.7329 5.01016 21.5946 5.15769C23.2338 4.3772 24.526 5.36709 25.6651 6.61397C26.3854 7.40635 26.572 8.44859 26.5003 9.49796Z" fill="#28328C"/>
<path d="M9.76828 9.18625C9.78024 11.8608 7.62655 14.0096 4.92007 14.0215C2.15377 14.031 -0.0142871 11.8799 7.09017e-05 9.13628C0.0144289 6.51403 2.26863 4.30106 4.9081 4.31772C7.56433 4.33676 9.75631 6.53307 9.76828 9.18625Z" fill="#14BEF0"/>
<path d="M44.0002 9.24572C43.9787 11.9441 41.8513 14.0238 39.1161 14.0214C36.4503 14.0167 34.2344 11.8275 34.2368 9.19575C34.2392 6.57112 36.4575 4.34863 39.1018 4.3177C41.7891 4.28676 44.0194 6.53305 44.0002 9.24572Z" fill="#14BEF0"/>
</svg>
