<svg width="19" height="25" viewBox="0 0 19 25" fill="none" xmlns="http://www.w3.org/2000/svg">
<path d="M18.2958 7.18981C17.4607 2.29987 12.7297 -0.907746 8.02508 0.229672C6.93627 0.4938 6.03411 1.12914 4.92854 1.77161C5.20135 0.362926 4.36619 0.467625 3.54779 0.4938C2.67434 0.519975 1.79611 0.531873 0.922671 0.486662C0.312457 0.455728 0.0923013 0.627054 0.0946943 1.26953C0.113838 8.59136 0.116231 15.9132 0.0923008 23.235C0.0899078 23.9132 0.362709 24.0084 0.929849 23.9917C2.0043 23.9608 3.08115 23.9417 4.15321 23.9965C4.86393 24.0345 5.13195 23.8513 5.10323 23.0899C5.04341 21.4694 5.08648 19.8442 5.08648 18.2213V16.4605C5.54833 16.815 5.79481 17.003 6.0365 17.1934C7.67092 18.476 9.79829 18.8305 11.5045 18.3308C17.7502 16.5081 19.0281 11.473 18.2958 7.18981ZM13.5003 9.49796C13.3351 11.9417 11.3442 13.6907 8.95596 13.5241C6.55578 13.3576 4.76582 11.3088 4.95247 8.94353C5.11759 6.80671 6.73286 5.01016 8.59461 5.15769C10.2338 4.3772 11.526 5.36709 12.6651 6.61397C13.3854 7.40635 13.572 8.44859 13.5003 9.49796Z" fill="#28328C"/>
</svg>
