<svg width="85" height="27" viewBox="0 0 85 27" fill="none" xmlns="http://www.w3.org/2000/svg">
<path d="M9.12293 0.75L6.25789 26.0452H3.0159L0.150879 0.75H3.0913L4.52381 20.3528V20.5036V20.7298C4.48611 20.8052 4.48611 20.8806 4.52381 20.9937C4.5615 21.1068 4.5992 21.1445 4.63689 21.1445C4.67459 21.1445 4.71229 21.1068 4.74998 20.9937C4.78768 20.8806 4.78768 20.8052 4.74998 20.7298C4.71229 20.6921 4.71229 20.6921 4.74998 20.6544C4.74998 20.6167 4.74998 20.579 4.74998 20.5413V20.3905L6.18252 0.787697L9.12293 0.75Z" fill="black"/>
<path d="M17.8313 23.7457C18.0198 23.708 18.1706 23.5949 18.2836 23.4818C18.4721 23.2934 18.5852 23.1426 18.6606 22.9918C18.736 22.841 18.7737 22.5771 18.7737 22.1624L18.8114 20.8807H21.4126V22.0493C21.3749 22.2378 21.3749 22.4263 21.3749 22.5771C21.3372 22.7279 21.3372 22.8787 21.3372 23.0672C21.3372 23.2557 21.2995 23.4064 21.2618 23.5572C21.1864 23.8588 21.0733 24.1981 20.8848 24.4997C20.6963 24.8013 20.5455 25.0651 20.357 25.2159C20.2062 25.3667 19.9047 25.5929 19.49 25.8568C19.0753 26.1207 18.5098 26.2715 17.8313 26.2715H15.6071C14.8909 26.2715 14.3631 26.1207 13.9484 25.8568C13.5337 25.5929 13.2322 25.3667 13.0814 25.2159C12.9306 25.0651 12.7421 24.8013 12.5536 24.4997C12.3651 24.1981 12.252 23.8588 12.1766 23.5572C12.1389 23.4064 12.1012 23.2557 12.0635 23.0672C12.0258 22.8787 12.0258 22.7279 12.0258 22.5771C11.9881 22.4263 11.9881 22.2378 12.0258 22.0493V4.70837C11.9881 4.51988 11.9881 4.3314 12.0258 4.1806C12.0258 4.02981 12.0258 3.87902 12.0635 3.72823C12.1012 3.57744 12.1389 3.38895 12.1766 3.23816C12.252 2.93658 12.3651 2.5973 12.5536 2.29572C12.7421 1.99414 12.8929 1.73025 13.0814 1.57946C13.2322 1.42867 13.5337 1.20248 13.9484 0.9386C14.3631 0.674716 14.9286 0.523926 15.6071 0.523926H17.7182C18.4344 0.523926 18.9622 0.674716 19.3769 0.9386C19.7916 1.20248 20.0931 1.42867 20.2439 1.57946C20.3947 1.73025 20.5832 1.99414 20.7717 2.29572C20.9602 2.5973 21.0733 2.93658 21.1487 3.23816C21.1864 3.38895 21.2241 3.57744 21.2241 3.72823C21.2241 3.87902 21.2241 4.06751 21.2618 4.1806C21.2618 4.3314 21.2618 4.51988 21.2995 4.70837V5.80161H18.6983V2.97428H16.1726C15.9841 3.01198 15.7956 3.04967 15.6071 3.08737C15.4186 3.12507 15.3055 3.20047 15.1924 3.31356C15.0039 3.50205 14.8908 3.65284 14.8155 3.80363C14.7401 3.95442 14.7024 4.2183 14.7024 4.63298L14.6647 6.44247V20.466L14.7024 22.2755C14.7401 22.6902 14.7778 22.9541 14.8155 23.1049C14.8908 23.2557 15.0039 23.4064 15.1924 23.5949C15.3055 23.708 15.494 23.7834 15.7202 23.8588C15.9464 23.8965 16.1726 23.9342 16.3611 23.9342H17.3035C17.492 23.8211 17.6428 23.8211 17.8313 23.7457Z" fill="black"/>
<path d="M29.6305 23.7456C29.819 23.7079 29.9698 23.5948 30.0829 23.4818C30.2714 23.2933 30.3845 23.1425 30.4598 22.9917C30.5352 22.8409 30.5729 22.577 30.5729 22.1623L30.6106 20.8806H33.2118V22.0492C33.1741 22.2377 33.1741 22.4262 33.1741 22.577C33.1741 22.7655 33.1741 22.9163 33.1741 23.1048C33.1741 23.2933 33.1364 23.4441 33.0987 23.5948C33.0233 23.8964 32.9102 24.2357 32.7217 24.5373C32.5332 24.8389 32.3824 25.1028 32.194 25.2535C32.0432 25.4043 31.7416 25.6305 31.3269 25.8944C30.9122 26.1583 30.3468 26.3091 29.6682 26.3091H27.444C26.7278 26.3091 26.2 26.1583 25.7853 25.8944C25.3707 25.6305 25.0691 25.4043 24.9183 25.2535C24.7675 25.1028 24.579 24.8389 24.3905 24.5373C24.202 24.2357 24.0889 23.8964 24.0135 23.5948C23.9758 23.4441 23.9382 23.2933 23.9005 23.1048C23.8628 22.9163 23.8627 22.7655 23.8627 22.6147C23.825 22.4639 23.825 22.2754 23.8627 22.0869V4.74597C23.825 4.55748 23.825 4.369 23.8627 4.21821C23.8627 4.06741 23.8628 3.91662 23.9005 3.76583C23.9382 3.61504 23.9758 3.42655 24.0135 3.27576C24.0889 2.97418 24.202 2.6349 24.3905 2.33332C24.579 2.03174 24.7298 1.76785 24.9183 1.61706C25.0691 1.46627 25.3707 1.24008 25.7853 0.976198C26.2 0.712314 26.7655 0.561523 27.444 0.561523H29.5551C30.2714 0.561523 30.7991 0.712314 31.2138 0.976198C31.6285 1.24008 31.9301 1.46627 32.0808 1.61706C32.2316 1.76785 32.4201 2.03174 32.6086 2.33332C32.7971 2.6349 32.9102 2.97418 32.9856 3.27576C33.0233 3.42655 33.061 3.61504 33.061 3.76583C33.061 3.91662 33.061 4.10511 33.0987 4.21821C33.0987 4.369 33.0987 4.55748 33.1364 4.74597V5.80151H30.5352V2.97418H28.0095C27.821 3.01188 27.6325 3.04958 27.444 3.08727C27.2555 3.12497 27.1425 3.20037 27.0294 3.31346C26.8409 3.50195 26.7278 3.65274 26.6524 3.80353C26.577 3.95432 26.5393 4.21821 26.5393 4.63288L26.5016 6.44237V20.4659L26.5393 22.2754C26.577 22.6901 26.6147 22.954 26.6524 23.1048C26.7278 23.2556 26.8409 23.4064 27.0294 23.5948C27.1425 23.7079 27.3309 23.7833 27.5571 23.8587C27.7833 23.8964 28.0095 23.9341 28.198 23.9341H29.1404C29.2912 23.821 29.4797 23.821 29.6305 23.7456Z" fill="black"/>
<path d="M59.6003 23.7457C59.7888 23.708 59.9396 23.5949 60.0527 23.4818C60.2412 23.2934 60.3543 23.1426 60.4297 22.9918C60.5051 22.841 60.5428 22.5771 60.5428 22.1624L60.5805 20.8807H63.1816V22.0493C63.1439 22.2378 63.1439 22.4263 63.1439 22.5771C63.1062 22.7279 63.1062 22.8787 63.1062 23.0672C63.1062 23.2557 63.0685 23.4064 63.0308 23.5572C62.9554 23.8588 62.8423 24.1981 62.6538 24.4997C62.4653 24.8013 62.3145 25.0651 62.1261 25.2159C61.9753 25.3667 61.6737 25.5929 61.259 25.8568C60.8443 26.1207 60.2789 26.2715 59.6003 26.2715H57.3762C56.6599 26.2715 56.1321 26.1207 55.7174 25.8568C55.3028 25.5929 55.0012 25.3667 54.8504 25.2159C54.6996 25.0651 54.5111 24.8013 54.3226 24.4997C54.1342 24.1981 54.0211 23.8588 53.9457 23.5572C53.908 23.4064 53.8703 23.2557 53.8326 23.0672C53.7949 22.8787 53.7949 22.7279 53.7949 22.5771C53.7572 22.4263 53.7572 22.2378 53.7949 22.0493V4.70837C53.7572 4.51988 53.7572 4.3314 53.7949 4.1806C53.7949 4.02981 53.7949 3.87902 53.8326 3.72823C53.8703 3.57744 53.908 3.38895 53.9457 3.23816C54.0211 2.93658 54.1342 2.5973 54.3226 2.29572C54.5111 1.99414 54.6619 1.73025 54.8504 1.57946C55.0012 1.42867 55.3028 1.20248 55.7174 0.9386C56.1321 0.674716 56.6976 0.523926 57.3762 0.523926H59.4872C60.2035 0.523926 60.7313 0.674716 61.1459 0.9386C61.5606 1.20248 61.8622 1.42867 62.013 1.57946C62.1638 1.73025 62.3522 1.99414 62.5407 2.29572C62.7292 2.5973 62.8423 2.93658 62.9177 3.23816C62.9554 3.38895 62.9554 3.53974 62.9554 3.72823C62.9554 3.87902 62.9554 4.06751 62.9931 4.1806C62.9931 4.3314 62.9931 4.51988 63.0308 4.70837V5.80161H60.4297V2.97428H57.9039C57.7154 3.01198 57.5269 3.04967 57.3385 3.08737C57.15 3.12507 57.0369 3.20047 56.9238 3.31356C56.7353 3.50205 56.6222 3.65284 56.5468 3.80363C56.4714 3.95442 56.4337 4.2183 56.4337 4.63298L56.396 6.44247V20.466L56.4337 22.2755C56.4714 22.6902 56.5091 22.9541 56.5468 23.1049C56.6222 23.2557 56.7353 23.4064 56.9238 23.5949C57.0369 23.708 57.2254 23.7834 57.4515 23.8588C57.6777 23.8965 57.9039 23.9342 58.0924 23.9342H59.0349C59.2233 23.8211 59.4118 23.8211 59.6003 23.7457Z" fill="black"/>
<path d="M65.3682 0.75H67.9316V23.5571H73.5486V26.0452H65.3682V0.75Z" fill="black"/>
<path d="M75.7349 0.75H83.7268V3.20035H78.336V9.79745H81.8419V12.2478H78.336V23.5948H84.0661V26.0452H75.7349V0.75Z" fill="black"/>
<path d="M38.4894 2.5218C38.4894 3.50194 37.6977 4.29359 36.7176 4.29359C35.7374 4.29359 34.9458 3.50194 34.9458 2.5218C34.9458 1.54165 35.7374 0.75 36.7176 0.75C37.6977 0.75 38.4894 1.54165 38.4894 2.5218Z" fill="black"/>
<path d="M36.7178 5.98987C36.2278 5.98987 35.7754 5.83908 35.3984 5.5752V26.0451H37.9996V5.5752C37.6226 5.83908 37.2079 5.98987 36.7178 5.98987Z" fill="black"/>
<path d="M47.2732 9.72206C47.2732 11.72 45.3129 11.6446 45.3129 11.6446H43.3526V3.20035H45.7653C47.2355 3.20035 47.2355 4.55747 47.2355 4.55747L47.2732 9.72206ZM50.0628 24.1603V15.6406C50.0628 15.6406 49.8366 12.8887 47.2732 12.8887C47.2732 12.8887 49.8743 13.1149 49.8743 10.9661V3.23805C49.8743 3.23805 49.9497 0.75 46.7454 0.75C43.5411 0.75 40.7515 0.75 40.7515 0.75V26.0452H43.3526V14.6605H46.3684C46.3684 14.6605 47.424 14.5474 47.424 16.3569V24.6504C47.424 24.6504 47.424 26.1583 49.158 26.1583H51.156V26.0075C51.1937 26.0075 50.0628 25.4043 50.0628 24.1603Z" fill="black"/>
</svg>
